<svg width="2500" height="5366" viewBox="0 0 2500 5366" fill="none" xmlns="http://www.w3.org/2000/svg">
<path d="M451.14 1873.8C552.503 1873.8 634.964 1956.27 634.964 2057.63C634.964 2158.99 552.503 2241.46 451.14 2241.46C349.777 2241.46 267.316 2158.99 267.316 2057.63C267.316 1956.27 349.777 1873.8 451.14 1873.8ZM649.804 1016.38C724.844 1068.61 815.907 1099.34 914.063 1099.34C1014.07 1099.34 1106.7 1067.42 1182.53 1013.39C1230.22 1039.03 1327.88 1113.63 1362.54 1303.66C1331.68 1295.48 1299.29 1291.06 1265.89 1291.06C1057.87 1291.06 888.616 1460.3 888.616 1668.33C888.616 1741.54 909.648 1809.9 945.885 1867.82C880.021 1925.88 786.75 2042.36 774.06 2241.95C758.175 2226.31 742.78 2212.58 728.789 2200.92C751.049 2157.96 763.707 2109.26 763.707 2057.63C763.707 1888.18 628.151 1749.89 459.788 1745.28C460.003 1678.65 460.637 1584.79 462.009 1452.47C465.039 1158.88 589.988 1051.18 649.804 1016.38ZM914.063 300.474C1098.82 300.474 1249.13 450.786 1249.13 635.546C1249.13 820.292 1098.82 970.604 914.063 970.604C729.319 970.604 579.008 820.292 579.008 635.546C579.008 450.786 729.319 300.474 914.063 300.474ZM1524.81 128.738C1709.55 128.738 1859.86 279.05 1859.86 463.81C1859.86 648.57 1709.55 798.882 1524.81 798.882C1465.64 798.882 1410.1 783.336 1361.83 756.296C1372.22 717.772 1377.87 677.315 1377.87 635.546C1377.87 503.326 1322.17 383.941 1233.11 299.376C1290.66 197.621 1399.79 128.738 1524.81 128.738ZM2093.18 1421.49V1554.03C2084.1 1553.23 2074.93 1552.75 2065.64 1552.75C1893.29 1552.75 1753.07 1692.96 1753.07 1865.32C1753.07 1925.34 1770.12 1981.44 1799.56 2029.1C1774.37 2048.54 1746.13 2074.1 1719.41 2106.54C1686.82 1994.96 1628.13 1921.1 1580.32 1876.5C1619.98 1816.79 1643.15 1745.23 1643.15 1668.33C1643.15 1549.2 1587.6 1442.87 1501.1 1373.68C1481.49 1107.49 1363.26 979.749 1278.6 921.781C1290.28 906.934 1301.17 891.435 1311 875.217C1375.01 908.659 1447.72 927.626 1524.81 927.626C1595.79 927.626 1663.07 911.546 1723.29 882.911C1821.59 923.949 2093.18 1069.19 2093.18 1421.49ZM2065.64 2049.14C1964.28 2049.14 1881.82 1966.68 1881.82 1865.32C1881.82 1763.95 1964.28 1681.49 2065.64 1681.49C2167 1681.49 2249.47 1763.95 2249.47 1865.32C2249.47 1966.68 2167 2049.14 2065.64 2049.14ZM1265.89 1916.87C1128.85 1916.87 1017.36 1805.38 1017.36 1668.33C1017.36 1531.3 1128.85 1419.81 1265.89 1419.81C1402.93 1419.81 1514.42 1531.3 1514.42 1668.33C1514.42 1805.38 1402.93 1916.87 1265.89 1916.87ZM128.743 2542.69C128.743 2443.33 207.703 2357.8 265.168 2308.68C317.178 2347.31 381.527 2370.2 451.14 2370.2C525.423 2370.2 593.691 2344.11 647.38 2300.68C687.536 2334.13 742.427 2388.33 772.459 2454.16V2669.33H901.203V2287.99C901.203 2105.79 981.521 2007.26 1031.44 1963.58C1095.87 2014.86 1177.34 2045.61 1265.89 2045.61C1350.74 2045.61 1429.13 2017.43 1492.22 1969.97C1542.43 2016.62 1615.45 2114.27 1615.45 2287.99V2375.39C1614.87 2385.46 1614.51 2395.7 1614.51 2406.21V2669.33H1615.45H1743.24H1744.19V2380.49C1753.46 2241.02 1836.54 2160.26 1888.82 2122.88C1939.14 2157.54 2000.05 2177.89 2065.64 2177.89C2127.39 2177.89 2184.96 2159.82 2233.49 2128.78C2289.11 2171.02 2371.26 2258.4 2371.26 2406.21V2669.33H2500V2406.21C2500 2217.12 2402.58 2100.45 2326.05 2037.93C2358.97 1988.43 2378.21 1929.09 2378.21 1865.32C2378.21 1749.87 2315.26 1648.93 2221.93 1594.8V1421.49C2221.93 1065.89 1990.42 881.206 1843.89 799.933C1932.92 715.368 1988.6 596.01 1988.6 463.81C1988.6 208.058 1780.54 0 1524.81 0C1356.7 0 1209.33 89.9663 1128 224.23C1063.94 190.769 991.207 171.736 914.063 171.736C658.327 171.736 450.265 379.794 450.265 635.546C450.265 745.623 488.886 846.804 553.189 926.425C462.185 992.146 336.499 1139.16 333.265 1451.14C331.887 1584.76 331.13 1691.11 330.986 1769.11C218.108 1816.3 138.573 1927.84 138.573 2057.63C138.573 2113.9 153.602 2166.71 179.728 2212.36C104.093 2277.73 0 2394.56 0 2542.69V2669.33H128.743V2542.69Z" fill="white"/>
<path d="M289.167 3221.44C265.685 3228.91 231.545 3232.1 188.866 3232.1H146.175V3022.97H195.263C243.274 3022.97 265.685 3025.1 288.102 3030.43C330.774 3042.18 356.387 3079.53 356.387 3129.67C356.387 3174.48 330.774 3209.69 289.167 3221.44ZM403.332 2923.74C356.387 2893.86 303.032 2883.19 195.263 2883.19H0V3671.72H146.175V3371.88H193.133C300.895 3371.88 351.042 3363.35 393.734 3339.87C462.019 3301.46 503.633 3220.37 503.633 3126.47C503.633 3037.9 467.351 2965.34 403.332 2923.74Z" fill="white"/>
<path d="M611.396 3671.72H757.584V3022.97H1026.46V2883.19H611.396V3671.72Z" fill="white"/>
<path d="M1476.74 3010.17C1568.51 3010.17 1630.4 3040.04 1683.74 3109.41H1846.99C1817.12 3043.25 1791.5 3008.04 1741.36 2965.35C1667.74 2903.45 1572.77 2869.33 1473.54 2869.33C1250.53 2869.33 1068.07 3051.78 1068.07 3274.78C1068.07 3503.13 1252.68 3685.59 1483.14 3685.59C1645.33 3685.59 1785.1 3595.97 1846.99 3451.92H1675.21C1610.12 3519.14 1555.7 3544.74 1479.94 3544.74C1333.76 3544.74 1215.32 3423.11 1215.32 3275.85C1215.32 3211.84 1239.86 3143.55 1280.41 3096.6C1328.43 3040.04 1395.65 3010.17 1476.74 3010.17Z" fill="white"/>
<path d="M2342.08 2883.19L2183.09 3284.4L2027.32 2883.19H1869.39L2111.6 3464.72L2030.51 3671.72H2169.23L2500 2883.19H2342.08Z" fill="white"/>
<rect y="3885.59" width="2500" height="150" rx="75" fill="#EE1E45"/>
<path d="M314.697 4285.07C314.697 4285.07 314.697 4346.76 314.697 4470.13C339.925 4464.43 360.27 4453.12 375.732 4436.19C391.357 4419.26 399.17 4399.73 399.17 4377.6C399.17 4355.46 391.357 4335.93 375.732 4319C360.27 4302.08 339.925 4290.77 314.697 4285.07ZM246.094 4470.13V4285.56C220.866 4291.42 200.439 4302.73 184.814 4319.49C169.352 4336.26 161.621 4355.63 161.621 4377.6C161.621 4399.73 169.352 4419.26 184.814 4436.19C200.439 4453.12 220.866 4464.43 246.094 4470.13ZM246.094 4218.17V4196.2H314.697C314.697 4196.2 314.697 4203.53 314.697 4218.17C359.294 4225.01 395.996 4243.24 424.805 4272.86C453.613 4302.48 468.018 4337.4 468.018 4377.6C468.018 4417.8 453.613 4452.71 424.805 4482.33C395.996 4511.96 359.294 4530.19 314.697 4537.02V4565.59C314.697 4565.59 291.829 4565.59 246.094 4565.59C246.094 4565.59 246.094 4556.06 246.094 4537.02C216.96 4532.63 190.755 4523.02 167.48 4508.21C144.206 4493.24 125.895 4474.36 112.549 4451.57C99.2025 4428.79 92.5293 4404.13 92.5293 4377.6C92.5293 4351.07 99.2025 4326.41 112.549 4303.62C125.895 4280.84 144.206 4262.04 167.48 4247.23C190.755 4232.25 216.96 4222.57 246.094 4218.17ZM699.951 4288.49C699.951 4288.49 722.412 4288.49 767.334 4288.49C767.334 4288.49 767.334 4380.85 767.334 4565.59C767.334 4565.59 745.361 4565.59 701.416 4565.59C701.416 4565.59 701.416 4504.55 701.416 4382.48C701.416 4382.48 660.075 4443.52 577.393 4565.59C577.393 4565.59 554.932 4565.59 510.01 4565.59C510.01 4565.59 510.01 4473.22 510.01 4288.49C510.01 4288.49 531.982 4288.49 575.928 4288.49C575.928 4288.49 575.928 4349.52 575.928 4471.59C575.928 4471.59 617.269 4410.56 699.951 4288.49ZM1078.86 4565.59C1078.86 4565.59 1055.18 4565.59 1007.81 4565.59C1007.81 4565.59 984.375 4504.23 937.5 4381.5C937.5 4381.5 913.981 4442.87 866.943 4565.59C866.943 4565.59 843.262 4565.59 795.898 4565.59C795.898 4565.59 834.391 4473.22 911.377 4288.49C911.377 4288.49 928.711 4288.49 963.379 4288.49C963.379 4288.49 1001.87 4380.85 1078.86 4565.59ZM1297.61 4288.49C1297.61 4288.49 1320.07 4288.49 1364.99 4288.49C1364.99 4288.49 1364.99 4380.85 1364.99 4565.59C1364.99 4565.59 1343.02 4565.59 1299.07 4565.59C1299.07 4565.59 1299.07 4504.55 1299.07 4382.48C1299.07 4382.48 1257.73 4443.52 1175.05 4565.59C1175.05 4565.59 1152.59 4565.59 1107.67 4565.59C1107.67 4565.59 1107.67 4473.22 1107.67 4288.49C1107.67 4288.49 1129.64 4288.49 1173.58 4288.49C1173.58 4288.49 1173.58 4349.52 1173.58 4471.59C1173.58 4471.59 1214.93 4410.56 1297.61 4288.49ZM1698.49 4288.49C1698.49 4288.49 1698.49 4380.85 1698.49 4565.59C1698.49 4565.59 1678.22 4565.59 1637.7 4565.59C1637.7 4565.59 1637.7 4553.62 1637.7 4529.7C1624.35 4544.83 1610.51 4555.74 1596.19 4562.41C1582.03 4568.92 1565.19 4572.18 1545.65 4572.18C1518.96 4572.18 1494.95 4566.07 1473.63 4553.87C1452.47 4541.5 1435.87 4524.33 1423.83 4502.35C1411.95 4480.38 1406.01 4455.64 1406.01 4428.14C1406.01 4400.3 1412.03 4375.32 1424.07 4353.18C1436.12 4330.89 1452.88 4313.47 1474.37 4300.94C1495.85 4288.41 1520.1 4282.14 1547.12 4282.14C1567.14 4282.14 1584.39 4285.64 1598.88 4292.64C1613.36 4299.47 1626.3 4310.46 1637.7 4325.6V4288.49H1698.49ZM1552.98 4343.17C1529.87 4343.17 1510.74 4351.31 1495.61 4367.59C1480.63 4383.86 1473.14 4404.53 1473.14 4429.6C1473.14 4453.85 1480.71 4473.55 1495.85 4488.68C1511.15 4503.66 1530.92 4511.14 1555.18 4511.14C1579.26 4511.14 1598.63 4503.49 1613.28 4488.19C1628.09 4472.89 1635.5 4452.87 1635.5 4428.14C1635.5 4403.07 1627.77 4382.64 1612.3 4366.86C1597.01 4351.07 1577.23 4343.17 1552.98 4343.17ZM2010.01 4565.59C2010.01 4565.59 1986.33 4565.59 1938.96 4565.59C1938.96 4565.59 1915.53 4504.23 1868.65 4381.5C1868.65 4381.5 1845.13 4442.87 1798.1 4565.59C1798.1 4565.59 1774.41 4565.59 1727.05 4565.59C1727.05 4565.59 1765.54 4473.22 1842.53 4288.49C1842.53 4288.49 1859.86 4288.49 1894.53 4288.49C1894.53 4288.49 1933.02 4380.85 2010.01 4565.59ZM2245.36 4349.03C2245.36 4349.03 2245.36 4365.55 2245.36 4398.59C2245.36 4398.59 2260.99 4398.59 2292.24 4398.59C2305.91 4398.59 2316.24 4396.4 2323.24 4392C2330.24 4387.45 2333.74 4381.34 2333.74 4373.69C2333.74 4366.04 2330.16 4360.02 2323 4355.63C2316 4351.23 2305.75 4349.03 2292.24 4349.03H2245.36ZM2245.36 4447.18C2245.36 4447.18 2245.36 4466.47 2245.36 4505.04C2245.36 4505.04 2265.54 4505.04 2305.91 4505.04C2316 4505.04 2324.06 4502.44 2330.08 4497.23C2336.26 4491.86 2339.36 4484.78 2339.36 4475.99C2339.36 4467.2 2336.26 4460.2 2330.08 4454.99C2324.06 4449.78 2316 4447.18 2305.91 4447.18H2245.36ZM2364.75 4421.54C2376.3 4425.94 2386.07 4432.77 2394.04 4442.05C2402.18 4451.17 2406.25 4462.48 2406.25 4475.99C2406.25 4501.05 2397.3 4522.29 2379.39 4539.71C2361.49 4556.96 2338.46 4565.59 2310.3 4565.59H2178.96V4288.49C2178.96 4288.49 2216.96 4288.49 2292.97 4288.49C2324.38 4288.49 2349.61 4295.81 2368.65 4310.46C2387.86 4325.11 2397.46 4346.19 2397.46 4373.69C2397.46 4384.27 2394.21 4393.96 2387.7 4402.74C2381.35 4411.53 2373.7 4417.8 2364.75 4421.54ZM228.76 4953.49C228.76 4953.49 228.76 4973.67 228.76 5014.03C228.76 5014.03 198.568 5014.03 138.184 5014.03C138.184 5014.03 138.184 5086.22 138.184 5230.59C138.184 5230.59 116.048 5230.59 71.7773 5230.59C71.7773 5230.59 71.7773 5138.22 71.7773 4953.49C71.7773 4953.49 124.105 4953.49 228.76 4953.49ZM247.803 5230.59C247.803 5230.59 247.803 5209.26 247.803 5166.62C247.803 5166.62 269.938 5166.62 314.209 5166.62C314.209 5166.62 314.209 5187.94 314.209 5230.59C314.209 5230.59 292.074 5230.59 247.803 5230.59ZM526.855 5230.59C526.855 5230.59 526.855 5107.46 526.855 4861.2C526.855 4861.2 558.187 4861.2 620.85 4861.2C620.85 4861.2 654.053 4954.46 720.459 5140.99C720.459 5140.99 753.255 5047.73 818.848 4861.2C818.848 4861.2 850.179 4861.2 912.842 4861.2C912.842 4861.2 912.842 4984.33 912.842 5230.59C912.842 5230.59 890.055 5230.59 844.482 5230.59C844.482 5230.59 844.482 5138.22 844.482 4953.49C844.482 4953.49 812.337 5045.85 748.047 5230.59C748.047 5230.59 729.329 5230.59 691.895 5230.59C691.895 5230.59 659.749 5138.22 595.459 4953.49C595.459 4953.49 595.459 5045.85 595.459 5230.59C595.459 5230.59 572.591 5230.59 526.855 5230.59ZM1165.53 4953.49C1165.53 4953.49 1187.99 4953.49 1232.91 4953.49C1232.91 4953.49 1232.91 5045.85 1232.91 5230.59C1232.91 5230.59 1210.94 5230.59 1166.99 5230.59C1166.99 5230.59 1166.99 5169.55 1166.99 5047.48C1166.99 5047.48 1125.65 5108.52 1042.97 5230.59C1042.97 5230.59 1020.51 5230.59 975.586 5230.59C975.586 5230.59 975.586 5138.22 975.586 4953.49C975.586 4953.49 997.559 4953.49 1041.5 4953.49C1041.5 4953.49 1041.5 5014.52 1041.5 5136.59C1041.5 5136.59 1082.85 5075.56 1165.53 4953.49ZM1541.99 5230.59C1541.99 5230.59 1519.86 5230.59 1475.59 5230.59C1475.59 5230.59 1475.59 5194.05 1475.59 5120.97C1475.59 5120.97 1434.9 5120.97 1353.52 5120.97C1353.52 5120.97 1353.52 5157.51 1353.52 5230.59C1353.52 5230.59 1331.38 5230.59 1287.11 5230.59C1287.11 5230.59 1287.11 5138.22 1287.11 4953.49C1287.11 4953.49 1309.24 4953.49 1353.52 4953.49C1353.52 4953.49 1353.52 4989.21 1353.52 5060.66C1353.52 5060.66 1394.21 5060.66 1475.59 5060.66C1475.59 5060.66 1475.59 5024.94 1475.59 4953.49C1475.59 4953.49 1497.72 4953.49 1541.99 4953.49C1541.99 4953.49 1541.99 5045.85 1541.99 5230.59ZM1793.7 5139.52C1793.7 5139.52 1818.68 5139.52 1868.65 5139.52C1857.1 5170.61 1839.36 5194.7 1815.43 5211.79C1791.67 5228.71 1763.59 5237.18 1731.2 5237.18C1711.02 5237.18 1691.73 5233.35 1673.34 5225.7C1655.11 5218.05 1639.4 5207.8 1626.22 5194.94C1613.04 5182.08 1602.54 5166.7 1594.73 5148.8C1586.91 5130.9 1583.01 5112.02 1583.01 5092.16C1583.01 5065.47 1589.44 5041.05 1602.29 5018.92C1615.15 4996.62 1632.73 4979.12 1655.03 4966.43C1677.49 4953.57 1702.15 4947.14 1729 4947.14C1748.86 4947.14 1767.74 4950.72 1785.64 4957.88C1803.71 4964.88 1819.5 4974.97 1833.01 4988.15C1841.8 4996.78 1848.71 5005.24 1853.76 5013.55C1858.97 5021.68 1863.93 5032.51 1868.65 5046.02H1793.7C1780.68 5020.79 1759.11 5008.17 1729 5008.17C1705.89 5008.17 1686.93 5015.99 1672.12 5031.61C1657.47 5047.07 1650.15 5067.09 1650.15 5091.67C1650.15 5115.92 1657.8 5136.1 1673.1 5152.22C1688.56 5168.17 1707.76 5176.14 1730.71 5176.14C1744.38 5176.14 1756.18 5173.21 1766.11 5167.35C1776.2 5161.49 1785.4 5152.22 1793.7 5139.52ZM1908.69 5230.59C1908.69 5230.59 1908.69 5138.22 1908.69 4953.49C1908.69 4953.49 1930.83 4953.49 1975.1 4953.49C1975.1 4953.49 1975.1 4996.05 1975.1 5081.17C1975.1 5081.17 2007.08 5038.61 2071.04 4953.49C2071.04 4953.49 2097.9 4953.49 2151.61 4953.49C2151.61 4953.49 2114.75 4999.39 2041.02 5091.18C2041.02 5091.18 2079.83 5137.65 2157.47 5230.59C2157.47 5230.59 2128.66 5230.59 2071.04 5230.59C2071.04 5230.59 2039.06 5188.11 1975.1 5103.15C1975.1 5103.15 1975.1 5145.63 1975.1 5230.59C1975.1 5230.59 1952.96 5230.59 1908.69 5230.59ZM2438.96 5121.7C2438.96 5121.7 2367.43 5121.7 2224.37 5121.7C2228.43 5138.46 2237.3 5151.73 2250.98 5161.49C2264.65 5171.26 2281.33 5176.14 2301.03 5176.14C2314.7 5176.14 2326.09 5174.11 2335.21 5170.04C2344.32 5165.81 2353.19 5158.65 2361.82 5148.56H2434.33C2430.42 5161.09 2423.1 5173.95 2412.35 5187.13C2383.71 5220.5 2347.09 5237.18 2302.49 5237.18C2281.66 5237.18 2261.96 5233.43 2243.41 5225.95C2224.85 5218.46 2208.9 5208.37 2195.56 5195.67C2182.37 5182.82 2171.88 5167.52 2164.06 5149.78C2156.25 5131.87 2152.34 5112.99 2152.34 5093.14C2152.34 5066.44 2158.77 5041.95 2171.63 5019.65C2184.65 4997.19 2202.31 4979.53 2224.61 4966.67C2247.07 4953.65 2271.65 4947.14 2298.34 4947.14C2325.52 4947.14 2350.02 4953.57 2371.83 4966.43C2393.64 4979.12 2410.64 4996.86 2422.85 5019.65C2435.22 5042.27 2441.41 5067.74 2441.41 5096.06C2441.41 5105.18 2440.59 5113.72 2438.96 5121.7ZM2222.41 5063.11H2375.98C2371.74 5045.37 2363.04 5031.77 2349.85 5022.33C2336.67 5012.89 2319.82 5008.17 2299.32 5008.17C2279.46 5008.17 2262.94 5012.89 2249.76 5022.33C2236.74 5031.61 2227.62 5045.2 2222.41 5063.11Z" fill="white"/>
</svg>
